<svg xmlns="http://www.w3.org/2000/svg" viewBox="0 0 400 400" fill="currentColor" aria-hidden="true">
  <path fill-rule="evenodd" d="M105.891 76.371 C 103.512 76.700,102.311 77.234,97.181 80.241 C 84.726 87.540,82.811 106.033,93.460 116.168 C 97.682 120.186,102.958 122.479,108.773 122.822 C 112.206 123.025,111.496 122.285,116.380 130.743 C 117.861 133.309,124.032 143.928,124.903 145.410 C 126.445 148.035,132.810 158.979,133.252 159.766 C 133.463 160.142,134.433 161.812,135.406 163.477 C 136.380 165.142,139.063 169.756,141.370 173.730 C 143.676 177.705,145.844 181.440,146.188 182.031 C 147.544 184.361,152.862 193.517,157.192 200.977 C 162.264 209.714,161.956 208.747,160.540 211.499 C 152.666 226.805,163.132 244.814,180.405 245.681 C 183.423 245.833,183.055 245.476,186.756 251.846 C 188.383 254.644,189.998 257.417,190.347 258.008 C 191.191 259.437,196.333 268.272,196.826 269.141 C 197.040 269.517,197.982 271.143,198.921 272.754 C 199.860 274.365,200.830 276.035,201.077 276.465 C 201.324 276.895,202.727 279.312,204.195 281.836 C 207.210 287.021,207.228 287.088,206.113 288.970 C 202.727 294.679,202.346 304.842,205.318 310.156 C 207.903 314.780,209.770 316.987,213.018 319.259 C 219.634 323.889,228.859 325.046,234.900 322.003 C 239.121 319.878,242.571 317.611,243.992 316.032 C 249.270 310.161,251.283 301.387,249.099 293.774 C 248.401 291.338,246.193 287.229,244.402 285.030 C 242.812 283.078,242.822 282.879,244.761 277.832 C 247.557 270.559,251.618 262.447,255.108 257.164 C 255.521 256.539,255.859 255.987,255.859 255.938 C 255.859 254.482,268.601 240.178,273.302 236.358 C 278.205 232.372,277.839 232.511,281.136 233.388 C 295.547 237.220,309.195 227.848,310.736 213.061 C 311.417 206.525,308.997 199.569,304.351 194.706 C 300.408 190.579,294.306 187.816,288.595 187.573 C 286.319 187.475,285.437 187.213,284.993 186.502 C 284.659 185.967,276.653 172.245,276.143 171.332 C 275.747 170.623,270.648 161.846,262.503 147.852 C 258.817 141.519,252.739 131.064,248.137 123.142 C 245.765 119.060,245.821 119.417,247.143 116.750 C 254.088 102.739,246.717 86.765,231.620 83.110 C 219.577 80.194,206.875 87.783,203.898 99.672 C 202.973 103.368,202.795 103.591,200.391 104.077 C 179.440 108.316,159.121 106.898,142.480 100.035 C 135.415 97.121,133.194 95.752,132.716 94.014 C 129.382 81.897,118.359 74.647,105.891 76.371 M133.573 114.129 C 139.989 116.914,147.126 119.328,151.270 120.113 C 152.344 120.317,153.970 120.660,154.883 120.875 C 168.221 124.014,187.168 123.687,205.310 120.004 C 207.168 119.627,207.100 119.594,209.536 122.060 C 214.164 126.747,220.236 129.294,226.780 129.296 C 229.324 129.297,229.451 129.376,230.920 131.894 C 232.198 134.083,239.783 147.132,244.964 156.055 C 254.953 173.257,258.168 178.788,259.381 180.859 C 264.979 190.416,268.158 196.014,268.266 196.505 C 268.370 196.977,268.196 197.433,267.322 198.981 C 263.810 205.203,263.129 211.924,265.325 218.694 C 265.984 220.728,265.831 221.133,263.815 222.690 C 250.402 233.046,237.062 251.925,229.796 270.831 C 227.441 276.960,227.446 276.953,225.217 276.953 C 223.909 276.953,223.377 276.471,221.929 273.976 C 218.669 268.356,211.210 255.533,209.403 252.441 C 208.273 250.508,206.587 247.607,205.656 245.996 C 204.725 244.385,203.206 241.764,202.281 240.171 C 200.212 236.612,200.165 236.404,201.071 234.863 C 210.545 218.754,199.954 199.317,181.488 198.923 C 178.105 198.851,178.311 198.982,176.432 195.717 C 174.953 193.149,172.932 189.671,168.990 182.910 C 166.263 178.234,159.019 165.760,156.343 161.133 C 155.567 159.790,154.472 157.900,153.910 156.934 C 150.799 151.576,148.426 147.499,147.261 145.508 C 146.538 144.272,144.952 141.548,143.737 139.453 C 142.521 137.358,141.091 134.897,140.558 133.984 C 140.025 133.071,139.085 131.445,138.469 130.371 C 137.853 129.297,135.734 125.649,133.761 122.266 C 128.987 114.080,128.963 114.033,129.253 113.398 C 129.610 112.613,130.380 112.744,133.573 114.129 "/>
</svg>
